# xmcd CD database file
#
# Track frame offsets:
#	150
#	19490
#	39140
#	58317
#	80202
#	106962
#	123580
#	147625
#	169012
#	187987
#	207890
#	222020
#	238825
#	256105
#	279680
#
# Disc length: 4013 seconds
#
# Revision: 0
# Processed by: cddbd v1.5PL3 Copyright (c) Steve Scherf et al.
# Submitted via: CDex 1.50beta10
#
DISCID=e20fab0f
DTITLE=Reason - 10
DYEAR=1900
DGENRE=歌謡曲
TTITLE0=EPO/う・ふ・ふ・ふ
TTITLE1=矢野顕子/David
TTITLE2=大貫妙子/ベジタブル
TTITLE3=小林武史/Water Colour
TTITLE4=135/我愛ー
TTITLE5=小野リサ/星の散歩
TTITLE6=河内淳一/何度も何度も
TTITLE7=FLEX/TEMPTATION
TTITLE8=EPO/土曜の夜はパラダイス
TTITLE9=福山雅治/アクセス
TTITLE10=大貫妙子/LITTLE HOPE
TTITLE11=村井麻里子/どうしようもなく恋愛
TTITLE12=吉田美奈子/夢で逢えたら
TTITLE13=矢野顕子/わたしたち
TTITLE14=坂本龍一/SELF POATRAIT
EXTD=
EXTT0=
EXTT1=
EXTT2=
EXTT3=
EXTT4=
EXTT5=
EXTT6=
EXTT7=
EXTT8=
EXTT9=
EXTT10=
EXTT11=
EXTT12=
EXTT13=
EXTT14=
PLAYORDER=
